<?xml version="1.0" standalone="no"?>
<!DOCTYPE svg PUBLIC "-//W3C//DTD SVG 20010904//EN"
 "http://www.w3.org/TR/2001/REC-SVG-20010904/DTD/svg10.dtd">
<svg version="1.0" xmlns="http://www.w3.org/2000/svg"
viewBox="0 0 1200.000000 1200.000000"
 preserveAspectRatio="xMidYMid meet">
<g transform="translate(0.000000,1200.000000) scale(0.100000,-0.100000)"
stroke="none">
<path fill="#003D8F" d="M7600 11913 c-668 -37 -1520 -160 -2095 -302 -309 -76 -774 -225
-1190 -381 -856 -321 -1640 -716 -2309 -1164 -645 -432 -1093 -842 -1470
-1345 -9 -12 -7 -13 9 -9 97 26 1908 510 2850 762 3813 1018 4782 1277 4798
1282 16 5 17 42 17 585 l0 579 -277 -2 c-153 -1 -303 -3 -333 -5z"/>
<path fill=" #E20031" d="M5600 9662 c-3017 -811 -5487 -1476 -5490 -1479 -2 -2 441 -449 985
-993 l990 -988 150 -21 c196 -27 411 -48 615 -61 213 -13 792 -13 1030 0 1012
55 2058 246 3085 561 1082 333 2303 899 3259 1511 l99 64 383 1429 c211 787
383 1435 381 1440 -1 6 -2384 -629 -5487 -1463z"/>
<path fill="#003D8F" d="M11820 8929 c-673 -645 -1539 -1230 -2616 -1767 -1662 -831 -3345
-1297 -5174 -1434 -272 -20 -1132 -17 -1380 5 -795 71 -1371 213 -1860 459
-96 48 -175 86 -176 85 -1 -1 133 -335 298 -742 164 -407 315 -785 334 -840
71 -196 157 -335 298 -482 697 -730 2306 -1031 4226 -792 717 89 1367 231
2165 474 1432 435 2501 943 3260 1549 222 177 495 439 669 640 l76 88 0 1434
c0 789 -1 1434 -2 1434 -2 -1 -55 -50 -118 -111z"/>
<path fill="#003D8F" d="M136 7540 c4 -30 17 -92 30 -138 100 -346 368 -626 814 -848 122 -60
309 -138 316 -132 2 2 -260 267 -582 588 l-585 585 7 -55z"/>
<path fill="#E20031" d="M9055 3864 c-500 -190 -1229 -418 -1770 -553 -642 -160 -1363 -280
-1955 -323 -19 -2 -34 -6 -32 -10 1 -4 657 -661 1457 -1459 l1454 -1451 15 53
c38 133 1016 3791 1016 3800 0 14 -1 13 -185 -57z"/>
</g>
</svg>
